<?xml version="1.0" encoding="utf-8"?>
<!-- Generator: Adobe Illustrator 21.0.0, SVG Export Plug-In . SVG Version: 6.00 Build 0)  -->
<svg version="1.1" id="Layer_1" xmlns="http://www.w3.org/2000/svg" xmlns:xlink="http://www.w3.org/1999/xlink" x="0px" y="0px"
	 viewBox="0 0 67.6 47.5" style="enable-background:new 0 0 67.6 47.5;" xml:space="preserve">
<style type="text/css">
	.st0{fill:none;stroke:#D8D8D8;stroke-miterlimit:10;}
	.st1{fill:#FFFFFF;stroke:#D8D8D8;stroke-miterlimit:10;}
	.st2{clip-path:url(#SVGID_2_);}
	.st3{clip-path:url(#SVGID_4_);fill:none;stroke:#D8D8D8;stroke-width:3.2;stroke-miterlimit:10;}
	.st4{clip-path:url(#SVGID_6_);}
	.st5{clip-path:url(#SVGID_8_);}
	.st6{clip-path:url(#SVGID_10_);fill:#FFFFFF;}
	.st7{clip-path:url(#SVGID_12_);}
	.st8{clip-path:url(#SVGID_14_);fill:none;stroke:#D8D8D8;stroke-width:3.2;stroke-miterlimit:10;}
	.st9{clip-path:url(#SVGID_16_);}
	.st10{clip-path:url(#SVGID_18_);fill:#D8D8D8;}
	.st11{clip-path:url(#SVGID_20_);}
	.st12{clip-path:url(#SVGID_22_);fill:#D8D8D8;}
	.st13{clip-path:url(#SVGID_24_);}
	.st14{clip-path:url(#SVGID_26_);fill:#D8D8D8;}
	.st15{clip-path:url(#SVGID_28_);}
	.st16{clip-path:url(#SVGID_30_);fill:#D8D8D8;}
	.st17{clip-path:url(#SVGID_32_);}
	.st18{clip-path:url(#SVGID_34_);fill:#D8D8D8;}
	.st19{fill:none;stroke:#231F20;stroke-linecap:round;stroke-linejoin:round;stroke-miterlimit:10;}
	.st20{fill:#D8D8D8;}
	.st21{fill:none;stroke:#F74D4D;stroke-linecap:round;stroke-linejoin:round;stroke-miterlimit:10;}
	.st22{fill:#231F20;}
	.st23{fill:none;stroke:#D2D2D2;stroke-miterlimit:10;}
	.st24{fill-rule:evenodd;clip-rule:evenodd;fill:none;stroke:#D2D2D2;stroke-width:2;stroke-miterlimit:10;}
	.st25{fill-rule:evenodd;clip-rule:evenodd;fill:none;}
	.st26{clip-path:url(#SVGID_36_);}
	.st27{clip-path:url(#SVGID_38_);fill:none;stroke:#D2D2D2;stroke-width:4;stroke-miterlimit:10;}
	.st28{fill-rule:evenodd;clip-rule:evenodd;fill:#D2D2D2;}
	.st29{fill:#D2D2D2;}
	.st30{fill-rule:evenodd;clip-rule:evenodd;}
	.st31{fill:none;stroke:#D2D2D2;stroke-width:2;stroke-linecap:round;stroke-linejoin:round;stroke-miterlimit:10;}
	.st32{fill:none;stroke:#D2D2D2;stroke-width:2;stroke-miterlimit:10;}
	.st33{fill:none;stroke:#FFFFFF;stroke-width:2;stroke-miterlimit:10;}
	.st34{fill:none;stroke:#D2D2D2;stroke-width:1.6;stroke-miterlimit:10;}
	.st35{clip-path:url(#SVGID_40_);}
	.st36{clip-path:url(#SVGID_42_);}
</style>
<g>
	<defs>
		<path id="SVGID_1_" d="M-182.2-6.4h51.4c1.3,0,2.4,1.1,2.4,2.4v32.2c0,1.3-1.1,2.4-2.4,2.4h-51.4c-1.3,0-2.4-1.1-2.4-2.4V-4
			C-184.6-5.3-183.5-6.4-182.2-6.4z"/>
	</defs>
	<clipPath id="SVGID_2_">
		<use xlink:href="#SVGID_1_"  style="overflow:visible;"/>
	</clipPath>
	<g class="st2">
		<defs>
			<rect id="SVGID_3_" x="-255.4" y="-413.4" width="360" height="640"/>
		</defs>
		<clipPath id="SVGID_4_">
			<use xlink:href="#SVGID_3_"  style="overflow:visible;"/>
		</clipPath>
	</g>
</g>
<g>
	<defs>
		<path id="SVGID_5_" d="M-191,0.8c-1.8,0-3.2,1.4-3.2,3.2v32.2c0,1.8,1.4,3.2,3.2,3.2h51.4c1.8,0,3.2-1.4,3.2-3.2V4
			c0-1.8-1.4-3.2-3.2-3.2H-191z M-191,2.4h51.4c0.9,0,1.6,0.7,1.6,1.6v32.2c0,0.9-0.7,1.6-1.6,1.6H-191c-0.9,0-1.6-0.7-1.6-1.6V4
			C-192.6,3.2-191.9,2.4-191,2.4z M-214.2-19.2h97.8v78.6h-97.8V-19.2z"/>
	</defs>
	<clipPath id="SVGID_6_">
		<use xlink:href="#SVGID_5_"  style="overflow:visible;"/>
	</clipPath>
	<g class="st4">
		<defs>
			<path id="SVGID_7_" d="M-191,1.6h51.4c1.3,0,2.4,1.1,2.4,2.4v32.2c0,1.3-1.1,2.4-2.4,2.4H-191c-1.3,0-2.4-1.1-2.4-2.4V4
				C-193.4,2.7-192.3,1.6-191,1.6z"/>
		</defs>
		<clipPath id="SVGID_8_">
			<use xlink:href="#SVGID_7_"  style="overflow:visible;"/>
		</clipPath>
		<g class="st5">
			<defs>
				<rect id="SVGID_9_" x="-255.4" y="-413.4" width="360" height="640"/>
			</defs>
			<clipPath id="SVGID_10_">
				<use xlink:href="#SVGID_9_"  style="overflow:visible;"/>
			</clipPath>
		</g>
	</g>
</g>
<g>
	<defs>
		<path id="SVGID_11_" d="M-191,1.6h51.4c1.3,0,2.4,1.1,2.4,2.4v32.2c0,1.3-1.1,2.4-2.4,2.4H-191c-1.3,0-2.4-1.1-2.4-2.4V4
			C-193.4,2.7-192.3,1.6-191,1.6z"/>
	</defs>
	<clipPath id="SVGID_12_">
		<use xlink:href="#SVGID_11_"  style="overflow:visible;"/>
	</clipPath>
	<g class="st7">
		<defs>
			<rect id="SVGID_13_" x="-255.4" y="-413.4" width="360" height="640"/>
		</defs>
		<clipPath id="SVGID_14_">
			<use xlink:href="#SVGID_13_"  style="overflow:visible;"/>
		</clipPath>
	</g>
</g>
<g>
	<defs>
		<ellipse id="SVGID_15_" cx="-178.2" cy="16.1" rx="4" ry="4"/>
	</defs>
	<clipPath id="SVGID_16_">
		<use xlink:href="#SVGID_15_"  style="overflow:visible;"/>
	</clipPath>
	<g class="st9">
		<defs>
			<rect id="SVGID_17_" x="-255.4" y="-413.4" width="360" height="640"/>
		</defs>
		<clipPath id="SVGID_18_">
			<use xlink:href="#SVGID_17_"  style="overflow:visible;"/>
		</clipPath>
	</g>
</g>
<g>
	<defs>
		<rect id="SVGID_19_" x="-163.7" y="11.3" width="21.7" height="2.4"/>
	</defs>
	<clipPath id="SVGID_20_">
		<use xlink:href="#SVGID_19_"  style="overflow:visible;"/>
	</clipPath>
	<g class="st11">
		<defs>
			<rect id="SVGID_21_" x="-255.4" y="-413.4" width="360" height="640"/>
		</defs>
		<clipPath id="SVGID_22_">
			<use xlink:href="#SVGID_21_"  style="overflow:visible;"/>
		</clipPath>
	</g>
</g>
<g>
	<defs>
		<rect id="SVGID_23_" x="-163.7" y="19.3" width="21.7" height="2.4"/>
	</defs>
	<clipPath id="SVGID_24_">
		<use xlink:href="#SVGID_23_"  style="overflow:visible;"/>
	</clipPath>
	<g class="st13">
		<defs>
			<rect id="SVGID_25_" x="-255.4" y="-413.4" width="360" height="640"/>
		</defs>
		<clipPath id="SVGID_26_">
			<use xlink:href="#SVGID_25_"  style="overflow:visible;"/>
		</clipPath>
	</g>
</g>
<g>
	<defs>
		<rect id="SVGID_27_" x="-163.7" y="26.6" width="16" height="2.4"/>
	</defs>
	<clipPath id="SVGID_28_">
		<use xlink:href="#SVGID_27_"  style="overflow:visible;"/>
	</clipPath>
	<g class="st15">
		<defs>
			<rect id="SVGID_29_" x="-255.4" y="-413.4" width="360" height="640"/>
		</defs>
		<clipPath id="SVGID_30_">
			<use xlink:href="#SVGID_29_"  style="overflow:visible;"/>
		</clipPath>
	</g>
</g>
<g>
	<defs>
		<path id="SVGID_31_" d="M-171.7,26.6c0-3.6-2.9-6.4-6.4-6.4s-6.4,2.9-6.4,6.4S-171.7,30.1-171.7,26.6z"/>
	</defs>
	<clipPath id="SVGID_32_">
		<use xlink:href="#SVGID_31_"  style="overflow:visible;"/>
	</clipPath>
	<g class="st17">
		<defs>
			<rect id="SVGID_33_" x="-255.4" y="-413.4" width="360" height="640"/>
		</defs>
		<clipPath id="SVGID_34_">
			<use xlink:href="#SVGID_33_"  style="overflow:visible;"/>
		</clipPath>
	</g>
</g>
<g>
	<defs>
		<path id="SVGID_35_" d="M-5.3-125.6H46c1.3,0,2.4,1.1,2.4,2.4v32.2c0,1.3-1.1,2.4-2.4,2.4H-5.3c-1.3,0-2.4-1.1-2.4-2.4v-32.2
			C-7.8-124.5-6.7-125.6-5.3-125.6z"/>
	</defs>
	<clipPath id="SVGID_36_">
		<use xlink:href="#SVGID_35_"  style="overflow:visible;"/>
	</clipPath>
	<g class="st26">
		<defs>
			<rect id="SVGID_37_" x="-65.8" y="-549.7" width="360" height="640"/>
		</defs>
		<clipPath id="SVGID_38_">
			<use xlink:href="#SVGID_37_"  style="overflow:visible;"/>
		</clipPath>
	</g>
</g>
<g>
	<path d="M64.2,0H12.9C11,0,9.5,1.5,9.5,3.4v5H3.4C1.5,8.4,0,9.9,0,11.8V44c0,1.9,1.5,3.4,3.4,3.4h51.4c1.9,0,3.4-1.5,3.4-3.4v-5h6
		c1.9,0,3.4-1.5,3.4-3.4V3.4C67.6,1.5,66.1,0,64.2,0z M56.2,44c0,0.8-0.6,1.4-1.4,1.4H3.4C2.6,45.4,2,44.8,2,44V11.8
		c0-0.8,0.6-1.4,1.4-1.4h51.4c0.8,0,1.4,0.6,1.4,1.4V44z M65.6,35.6c0,0.8-0.6,1.4-1.4,1.4h-6V11.8c0-1.9-1.5-3.4-3.4-3.4H11.5v-5
		c0-0.8,0.6-1.4,1.4-1.4h51.4c0.8,0,1.4,0.6,1.4,1.4V35.6z"/>
	<g>
		<ellipse class="st30" cx="16.9" cy="23.5" rx="4" ry="4"/>
	</g>
	<g>
		<rect x="31.3" y="18.7" class="st30" width="21.7" height="2.4"/>
	</g>
	<g>
		<rect x="31.3" y="26.7" class="st30" width="21.7" height="2.4"/>
	</g>
	<g>
		<rect x="31.3" y="33.9" class="st30" width="16" height="2.4"/>
	</g>
	<g>
		<path class="st30" d="M23.3,33.9c0-3.6-2.9-6.4-6.4-6.4c-3.5,0-6.4,2.9-6.4,6.4S23.3,37.5,23.3,33.9z"/>
	</g>
</g>
</svg>
