<?xml version="1.0" encoding="utf-8"?>
<!-- Generator: Adobe Illustrator 21.0.0, SVG Export Plug-In . SVG Version: 6.00 Build 0)  -->
<svg version="1.1" id="Layer_1" xmlns="http://www.w3.org/2000/svg" xmlns:xlink="http://www.w3.org/1999/xlink" x="0px" y="0px"
	 viewBox="0 0 16.1 16" style="enable-background:new 0 0 16.1 16;" xml:space="preserve">
<style type="text/css">
	.st0{fill:none;stroke:#D8D8D8;stroke-miterlimit:10;}
	.st1{fill:#FFFFFF;stroke:#D8D8D8;stroke-miterlimit:10;}
	.st2{clip-path:url(#SVGID_2_);}
	.st3{clip-path:url(#SVGID_4_);fill:none;stroke:#D8D8D8;stroke-width:3.2;stroke-miterlimit:10;}
	.st4{clip-path:url(#SVGID_6_);}
	.st5{clip-path:url(#SVGID_8_);}
	.st6{clip-path:url(#SVGID_10_);fill:#FFFFFF;}
	.st7{clip-path:url(#SVGID_12_);}
	.st8{clip-path:url(#SVGID_14_);fill:none;stroke:#D8D8D8;stroke-width:3.2;stroke-miterlimit:10;}
	.st9{clip-path:url(#SVGID_16_);}
	.st10{clip-path:url(#SVGID_18_);fill:#D8D8D8;}
	.st11{clip-path:url(#SVGID_20_);}
	.st12{clip-path:url(#SVGID_22_);fill:#D8D8D8;}
	.st13{clip-path:url(#SVGID_24_);}
	.st14{clip-path:url(#SVGID_26_);fill:#D8D8D8;}
	.st15{clip-path:url(#SVGID_28_);}
	.st16{clip-path:url(#SVGID_30_);fill:#D8D8D8;}
	.st17{clip-path:url(#SVGID_32_);}
	.st18{clip-path:url(#SVGID_34_);fill:#D8D8D8;}
	.st19{fill:none;stroke:#231F20;stroke-linecap:round;stroke-linejoin:round;stroke-miterlimit:10;}
	.st20{fill:#D8D8D8;}
	.st21{fill:none;stroke:#F74D4D;stroke-linecap:round;stroke-linejoin:round;stroke-miterlimit:10;}
	.st22{fill:#231F20;}
	.st23{fill:none;stroke:#D2D2D2;stroke-miterlimit:10;}
	.st24{fill-rule:evenodd;clip-rule:evenodd;fill:none;stroke:#D2D2D2;stroke-width:2;stroke-miterlimit:10;}
	.st25{fill-rule:evenodd;clip-rule:evenodd;fill:none;}
	.st26{clip-path:url(#SVGID_36_);}
	.st27{clip-path:url(#SVGID_38_);fill:none;stroke:#D2D2D2;stroke-width:4;stroke-miterlimit:10;}
	.st28{fill-rule:evenodd;clip-rule:evenodd;fill:#D2D2D2;}
	.st29{fill:#D2D2D2;}
	.st30{fill-rule:evenodd;clip-rule:evenodd;}
	.st31{fill:none;stroke:#D2D2D2;stroke-width:2;stroke-linecap:round;stroke-linejoin:round;stroke-miterlimit:10;}
	.st32{fill:none;stroke:#D2D2D2;stroke-width:2;stroke-miterlimit:10;}
	.st33{fill:none;stroke:#FFFFFF;stroke-width:2;stroke-miterlimit:10;}
	.st34{fill:none;stroke:#D2D2D2;stroke-width:1.6;stroke-miterlimit:10;}
	.st35{clip-path:url(#SVGID_40_);}
	.st36{clip-path:url(#SVGID_42_);}
</style>
<g>
	<defs>
		<path id="SVGID_35_" d="M-265.1-134.4h51.4c1.3,0,2.4,1.1,2.4,2.4v32.2c0,1.3-1.1,2.4-2.4,2.4h-51.4c-1.3,0-2.4-1.1-2.4-2.4V-132
			C-267.5-133.4-266.4-134.4-265.1-134.4z"/>
	</defs>
	<clipPath id="SVGID_2_">
		<use xlink:href="#SVGID_35_"  style="overflow:visible;"/>
	</clipPath>
	<g class="st2">
		<defs>
			<rect id="SVGID_37_" x="-325.5" y="-558.5" width="360" height="640"/>
		</defs>
		<clipPath id="SVGID_4_">
			<use xlink:href="#SVGID_37_"  style="overflow:visible;"/>
		</clipPath>
	</g>
</g>
<g>
	<g>
		<polygon points="16,7 16,9 9,9 9,16 7,16 7,9 0,9 0,7 7,7 7,0 9,0 9,7 		"/>
	</g>
</g>
<g>
	<defs>
		<path id="SVGID_39_" d="M177.4,12.4h-0.8v3l2.6,1.6l0.4-0.6l-2.2-1.3V12.4z M177.1,18.9c-2.2,0-4-1.8-4-4s1.8-4,4-4s4,1.8,4,4
			S179.3,18.9,177.1,18.9z M177.1,9.9c-2.8,0-5,2.2-5,5s2.2,5,5,5c2.8,0,5-2.2,5-5S179.9,9.9,177.1,9.9z"/>
	</defs>
	<use xlink:href="#SVGID_39_"  style="overflow:visible;"/>
	<clipPath id="SVGID_6_">
		<use xlink:href="#SVGID_39_"  style="overflow:visible;"/>
	</clipPath>
	<g class="st4">
		<defs>
			<rect id="SVGID_41_" x="-79.9" y="-346.1" width="360" height="640"/>
		</defs>
		<use xlink:href="#SVGID_41_"  style="overflow:visible;"/>
		<clipPath id="SVGID_8_">
			<use xlink:href="#SVGID_41_"  style="overflow:visible;"/>
		</clipPath>
	</g>
</g>
</svg>
