<?xml version="1.0" encoding="utf-8"?>
<!-- Generator: Adobe Illustrator 21.0.0, SVG Export Plug-In . SVG Version: 6.00 Build 0)  -->
<svg version="1.1" id="Layer_1" xmlns="http://www.w3.org/2000/svg" xmlns:xlink="http://www.w3.org/1999/xlink" x="0px" y="0px"
	 viewBox="0 0 61 39.1" style="enable-background:new 0 0 61 39.1;" xml:space="preserve">
<style type="text/css">
	.st0{fill:none;stroke:#D8D8D8;stroke-miterlimit:10;}
	.st1{fill:#FFFFFF;stroke:#D8D8D8;stroke-miterlimit:10;}
	.st2{clip-path:url(#SVGID_2_);}
	.st3{clip-path:url(#SVGID_4_);fill:none;stroke:#D8D8D8;stroke-width:3.2;stroke-miterlimit:10;}
	.st4{clip-path:url(#SVGID_6_);}
	.st5{clip-path:url(#SVGID_8_);}
	.st6{clip-path:url(#SVGID_10_);fill:#FFFFFF;}
	.st7{clip-path:url(#SVGID_12_);}
	.st8{clip-path:url(#SVGID_14_);fill:none;stroke:#D8D8D8;stroke-width:3.2;stroke-miterlimit:10;}
	.st9{clip-path:url(#SVGID_16_);}
	.st10{clip-path:url(#SVGID_18_);fill:#D8D8D8;}
	.st11{clip-path:url(#SVGID_20_);}
	.st12{clip-path:url(#SVGID_22_);fill:#D8D8D8;}
	.st13{clip-path:url(#SVGID_24_);}
	.st14{clip-path:url(#SVGID_26_);fill:#D8D8D8;}
	.st15{clip-path:url(#SVGID_28_);}
	.st16{clip-path:url(#SVGID_30_);fill:#D8D8D8;}
	.st17{clip-path:url(#SVGID_32_);}
	.st18{clip-path:url(#SVGID_34_);fill:#D8D8D8;}
	.st19{fill:none;stroke:#231F20;stroke-linecap:round;stroke-linejoin:round;stroke-miterlimit:10;}
	.st20{fill:#D8D8D8;}
	.st21{fill:none;stroke:#F74D4D;stroke-linecap:round;stroke-linejoin:round;stroke-miterlimit:10;}
	.st22{fill:#231F20;}
	.st23{fill:none;stroke:#D2D2D2;stroke-miterlimit:10;}
	.st24{fill-rule:evenodd;clip-rule:evenodd;fill:none;stroke:#D2D2D2;stroke-width:2;stroke-miterlimit:10;}
	.st25{fill-rule:evenodd;clip-rule:evenodd;fill:none;}
	.st26{clip-path:url(#SVGID_36_);}
	.st27{clip-path:url(#SVGID_38_);fill:none;stroke:#D2D2D2;stroke-width:4;stroke-miterlimit:10;}
	.st28{fill-rule:evenodd;clip-rule:evenodd;fill:#D2D2D2;}
	.st29{fill:#D2D2D2;}
	.st30{fill-rule:evenodd;clip-rule:evenodd;}
	.st31{fill:none;stroke:#D2D2D2;stroke-width:2;stroke-linecap:round;stroke-linejoin:round;stroke-miterlimit:10;}
	.st32{fill:none;stroke:#D2D2D2;stroke-width:2;stroke-miterlimit:10;}
	.st33{fill:none;stroke:#FFFFFF;stroke-width:2;stroke-miterlimit:10;}
	.st34{fill:none;stroke:#D2D2D2;stroke-width:1.6;stroke-miterlimit:10;}
	.st35{clip-path:url(#SVGID_40_);}
	.st36{clip-path:url(#SVGID_42_);}
</style>
<g>
	<defs>
		<path id="SVGID_35_" d="M-145.4-130.3H-94c1.3,0,2.4,1.1,2.4,2.4v32.2c0,1.3-1.1,2.4-2.4,2.4h-51.4c-1.3,0-2.4-1.1-2.4-2.4v-32.2
			C-147.8-129.2-146.7-130.3-145.4-130.3z"/>
	</defs>
	<clipPath id="SVGID_2_">
		<use xlink:href="#SVGID_35_"  style="overflow:visible;"/>
	</clipPath>
	<g class="st2">
		<defs>
			<rect id="SVGID_37_" x="-205.8" y="-554.3" width="360" height="640"/>
		</defs>
		<clipPath id="SVGID_4_">
			<use xlink:href="#SVGID_37_"  style="overflow:visible;"/>
		</clipPath>
	</g>
</g>
<g>
	<path d="M57.8,0.2H8.5c-1.8,0-3.2,1.4-3.2,3.2v2.8h-2C1.4,6.1,0,7.6,0,9.4v26.5c0,1.8,1.4,3.2,3.2,3.2h49.4c1.8,0,3.2-1.5,3.2-3.2
		v-2.8h2c1.8,0,3.2-1.4,3.2-3.2V3.4C61,1.6,59.6,0.2,57.8,0.2z M53.8,35.9c0,0.7-0.5,1.2-1.2,1.2H3.2c-0.7,0-1.2-0.5-1.2-1.2V9.4
		c0-0.7,0.5-1.2,1.2-1.2h49.4c0.7,0,1.2,0.5,1.2,1.2V35.9z M59,29.9c0,0.7-0.5,1.2-1.2,1.2h-2V9.4c0-1.8-1.4-3.2-3.2-3.2H7.2V3.4
		c0-0.7,0.5-1.2,1.2-1.2h49.4c0.7,0,1.2,0.6,1.2,1.2V29.9z"/>
	<g>
		<path d="M27.6,34.6c-6.6,0-11.9-5.4-11.9-12s5.3-12,11.9-12s11.9,5.4,11.9,12S34.1,34.6,27.6,34.6z M27.6,12.6
			c-5.4,0-9.9,4.5-9.9,10s4.4,10,9.9,10s9.9-4.5,9.9-10S33,12.6,27.6,12.6z"/>
	</g>
	<g>
		<g>
			<path d="M31.5,27.2l1.8,2.3h-2.3L30,28.3c-0.8,0.4-1.6,0.6-2.5,0.6c-1.6,0-2.8-0.5-3.9-1.6c-1-1.1-1.5-2.3-1.5-3.8
				c0-1,0.2-1.9,0.7-2.7s1.1-1.5,2-2c0.8-0.5,1.7-0.7,2.7-0.7c1.5,0,2.7,0.5,3.8,1.6s1.6,2.4,1.6,3.9C32.8,24.9,32.4,26.1,31.5,27.2
				z M30.2,25.6c0.4-0.6,0.6-1.3,0.6-2.1c0-1-0.3-1.8-1-2.5c-0.7-0.7-1.5-1-2.4-1c-1,0-1.8,0.3-2.4,1c-0.7,0.7-1,1.5-1,2.5
				c0,1.1,0.4,2,1.2,2.7c0.6,0.5,1.4,0.8,2.2,0.8c0.5,0,0.9-0.1,1.3-0.3L27,24.4h2.3L30.2,25.6z"/>
		</g>
	</g>
</g>
<g>
	<defs>
		<path id="SVGID_39_" d="M297.1,16.6h-0.8v3l2.6,1.6l0.4-0.6l-2.2-1.3V16.6z M296.8,23.1c-2.2,0-4-1.8-4-4s1.8-4,4-4
			c2.2,0,4,1.8,4,4S299,23.1,296.8,23.1z M296.8,14.1c-2.8,0-5,2.2-5,5s2.2,5,5,5c2.8,0,5-2.2,5-5S299.6,14.1,296.8,14.1z"/>
	</defs>
	<use xlink:href="#SVGID_39_"  style="overflow:visible;"/>
	<clipPath id="SVGID_6_">
		<use xlink:href="#SVGID_39_"  style="overflow:visible;"/>
	</clipPath>
	<g class="st4">
		<defs>
			<rect id="SVGID_41_" x="39.8" y="-341.9" width="360" height="640"/>
		</defs>
		<use xlink:href="#SVGID_41_"  style="overflow:visible;"/>
		<clipPath id="SVGID_8_">
			<use xlink:href="#SVGID_41_"  style="overflow:visible;"/>
		</clipPath>
	</g>
</g>
</svg>
