<?xml version="1.0" encoding="utf-8"?>
<!-- Generator: Adobe Illustrator 21.0.0, SVG Export Plug-In . SVG Version: 6.00 Build 0)  -->
<svg version="1.1" id="Layer_1" xmlns="http://www.w3.org/2000/svg" xmlns:xlink="http://www.w3.org/1999/xlink" x="0px" y="0px"
	 viewBox="0 0 29.9 30" style="enable-background:new 0 0 29.9 30;" xml:space="preserve">
<style type="text/css">
	.st0{fill:none;stroke:#D8D8D8;stroke-miterlimit:10;}
	.st1{fill:#FFFFFF;stroke:#D8D8D8;stroke-miterlimit:10;}
	.st2{clip-path:url(#SVGID_2_);}
	.st3{clip-path:url(#SVGID_4_);fill:none;stroke:#D8D8D8;stroke-width:3.2;stroke-miterlimit:10;}
	.st4{clip-path:url(#SVGID_6_);}
	.st5{clip-path:url(#SVGID_8_);}
	.st6{clip-path:url(#SVGID_10_);fill:#FFFFFF;}
	.st7{clip-path:url(#SVGID_12_);}
	.st8{clip-path:url(#SVGID_14_);fill:none;stroke:#D8D8D8;stroke-width:3.2;stroke-miterlimit:10;}
	.st9{clip-path:url(#SVGID_16_);}
	.st10{clip-path:url(#SVGID_18_);fill:#D8D8D8;}
	.st11{clip-path:url(#SVGID_20_);}
	.st12{clip-path:url(#SVGID_22_);fill:#D8D8D8;}
	.st13{clip-path:url(#SVGID_24_);}
	.st14{clip-path:url(#SVGID_26_);fill:#D8D8D8;}
	.st15{clip-path:url(#SVGID_28_);}
	.st16{clip-path:url(#SVGID_30_);fill:#D8D8D8;}
	.st17{clip-path:url(#SVGID_32_);}
	.st18{clip-path:url(#SVGID_34_);fill:#D8D8D8;}
	.st19{fill:none;stroke:#231F20;stroke-linecap:round;stroke-linejoin:round;stroke-miterlimit:10;}
	.st20{fill:#D8D8D8;}
	.st21{fill:none;stroke:#F74D4D;stroke-linecap:round;stroke-linejoin:round;stroke-miterlimit:10;}
	.st22{fill:#231F20;}
	.st23{fill:none;stroke:#D2D2D2;stroke-miterlimit:10;}
	.st24{fill-rule:evenodd;clip-rule:evenodd;fill:none;stroke:#D2D2D2;stroke-width:2;stroke-miterlimit:10;}
	.st25{fill-rule:evenodd;clip-rule:evenodd;fill:none;}
	.st26{clip-path:url(#SVGID_36_);}
	.st27{clip-path:url(#SVGID_38_);fill:none;stroke:#D2D2D2;stroke-width:4;stroke-miterlimit:10;}
	.st28{fill-rule:evenodd;clip-rule:evenodd;fill:#D2D2D2;}
	.st29{fill:#D2D2D2;}
	.st30{fill-rule:evenodd;clip-rule:evenodd;}
	.st31{fill:none;stroke:#D2D2D2;stroke-width:2;stroke-linecap:round;stroke-linejoin:round;stroke-miterlimit:10;}
	.st32{fill:none;stroke:#D2D2D2;stroke-width:2;stroke-miterlimit:10;}
	.st33{fill:none;stroke:#FFFFFF;stroke-width:2;stroke-miterlimit:10;}
	.st34{fill:none;stroke:#D2D2D2;stroke-width:1.6;stroke-miterlimit:10;}
	.st35{clip-path:url(#SVGID_40_);}
	.st36{clip-path:url(#SVGID_42_);}
</style>
<g>
	<defs>
		<path id="SVGID_35_" d="M-293.9-124.4h51.4c1.3,0,2.4,1.1,2.4,2.4v32.2c0,1.3-1.1,2.4-2.4,2.4h-51.4c-1.3,0-2.4-1.1-2.4-2.4V-122
			C-296.3-123.3-295.3-124.4-293.9-124.4z"/>
	</defs>
	<clipPath id="SVGID_2_">
		<use xlink:href="#SVGID_35_"  style="overflow:visible;"/>
	</clipPath>
	<g class="st2">
		<defs>
			<rect id="SVGID_37_" x="-354.3" y="-548.4" width="360" height="640"/>
		</defs>
		<clipPath id="SVGID_4_">
			<use xlink:href="#SVGID_37_"  style="overflow:visible;"/>
		</clipPath>
	</g>
</g>
<g>
	<g>
		<path d="M6.2,11.5h1.5l2.9,7.5H9l-0.6-1.6H5.4L4.7,19H3.3L6.2,11.5z M6.9,13.5l-1,2.6h2L6.9,13.5z"/>
		<path d="M18.6,12.8l-1,1c-0.7-0.7-1.5-1.1-2.3-1.1c-0.7,0-1.3,0.2-1.8,0.7c-0.5,0.5-0.7,1.1-0.7,1.8c0,0.5,0.1,0.9,0.3,1.3
			c0.2,0.4,0.5,0.7,0.9,0.9c0.4,0.2,0.8,0.3,1.3,0.3c0.4,0,0.8-0.1,1.1-0.2c0.3-0.2,0.7-0.4,1.1-0.8l1,1c-0.6,0.5-1.1,0.9-1.6,1.1
			c-0.5,0.2-1.1,0.3-1.7,0.3c-1.2,0-2.1-0.4-2.9-1.1c-0.7-0.7-1.1-1.7-1.1-2.9c0-0.8,0.2-1.4,0.5-2c0.3-0.6,0.8-1.1,1.5-1.4
			c0.6-0.4,1.3-0.5,2-0.5c0.6,0,1.2,0.1,1.8,0.4S18.1,12.3,18.6,12.8z"/>
		<path d="M19.8,11.5h1.5v2.8h2.5v-2.8h1.5V19h-1.5v-3.3h-2.5V19h-1.5V11.5z"/>
	</g>
	<g>
		<path d="M15,30C6.7,30,0,23.3,0,15S6.7,0,15,0s15,6.7,15,15S23.3,30,15,30z M15,2C7.8,2,2,7.9,2,15s5.8,13,13,13s13-5.8,13-13
			S22.2,2,15,2z"/>
	</g>
</g>
<g>
	<defs>
		<path id="SVGID_39_" d="M148.5,22.5h-0.8v3l2.6,1.6l0.4-0.6l-2.2-1.3V22.5z M148.2,29c-2.2,0-4-1.8-4-4s1.8-4,4-4s4,1.8,4,4
			S150.5,29,148.2,29z M148.2,20c-2.8,0-5,2.2-5,5s2.2,5,5,5c2.8,0,5-2.2,5-5S151,20,148.2,20z"/>
	</defs>
	<use xlink:href="#SVGID_39_"  style="overflow:visible;"/>
	<clipPath id="SVGID_6_">
		<use xlink:href="#SVGID_39_"  style="overflow:visible;"/>
	</clipPath>
	<g class="st4">
		<defs>
			<rect id="SVGID_41_" x="-108.8" y="-336" width="360" height="640"/>
		</defs>
		<use xlink:href="#SVGID_41_"  style="overflow:visible;"/>
		<clipPath id="SVGID_8_">
			<use xlink:href="#SVGID_41_"  style="overflow:visible;"/>
		</clipPath>
	</g>
</g>
</svg>
