<?xml version="1.0" encoding="utf-8"?>
<!-- Generator: Adobe Illustrator 21.0.0, SVG Export Plug-In . SVG Version: 6.00 Build 0)  -->
<svg version="1.1" id="Layer_1" xmlns="http://www.w3.org/2000/svg" xmlns:xlink="http://www.w3.org/1999/xlink" x="0px" y="0px"
	 viewBox="0 0 49 45.3" style="enable-background:new 0 0 49 45.3;" xml:space="preserve">
<style type="text/css">
	.st0{fill:none;stroke:#D8D8D8;stroke-miterlimit:10;}
	.st1{fill:#FFFFFF;stroke:#D8D8D8;stroke-miterlimit:10;}
	.st2{clip-path:url(#SVGID_2_);}
	.st3{clip-path:url(#SVGID_4_);fill:none;stroke:#D8D8D8;stroke-width:3.2;stroke-miterlimit:10;}
	.st4{clip-path:url(#SVGID_6_);}
	.st5{clip-path:url(#SVGID_8_);}
	.st6{clip-path:url(#SVGID_10_);fill:#FFFFFF;}
	.st7{clip-path:url(#SVGID_12_);}
	.st8{clip-path:url(#SVGID_14_);fill:none;stroke:#D8D8D8;stroke-width:3.2;stroke-miterlimit:10;}
	.st9{clip-path:url(#SVGID_16_);}
	.st10{clip-path:url(#SVGID_18_);fill:#D8D8D8;}
	.st11{clip-path:url(#SVGID_20_);}
	.st12{clip-path:url(#SVGID_22_);fill:#D8D8D8;}
	.st13{clip-path:url(#SVGID_24_);}
	.st14{clip-path:url(#SVGID_26_);fill:#D8D8D8;}
	.st15{clip-path:url(#SVGID_28_);}
	.st16{clip-path:url(#SVGID_30_);fill:#D8D8D8;}
	.st17{clip-path:url(#SVGID_32_);}
	.st18{clip-path:url(#SVGID_34_);fill:#D8D8D8;}
	.st19{fill:none;stroke:#231F20;stroke-linecap:round;stroke-linejoin:round;stroke-miterlimit:10;}
	.st20{fill:#D8D8D8;}
	.st21{fill:none;stroke:#F74D4D;stroke-linecap:round;stroke-linejoin:round;stroke-miterlimit:10;}
	.st22{fill:#231F20;}
	.st23{fill:none;stroke:#D2D2D2;stroke-miterlimit:10;}
	.st24{fill-rule:evenodd;clip-rule:evenodd;fill:none;stroke:#D2D2D2;stroke-width:2;stroke-miterlimit:10;}
	.st25{fill-rule:evenodd;clip-rule:evenodd;fill:none;}
	.st26{clip-path:url(#SVGID_36_);}
	.st27{clip-path:url(#SVGID_38_);fill:none;stroke:#D2D2D2;stroke-width:4;stroke-miterlimit:10;}
	.st28{fill-rule:evenodd;clip-rule:evenodd;fill:#D2D2D2;}
	.st29{fill:#D2D2D2;}
	.st30{fill-rule:evenodd;clip-rule:evenodd;}
	.st31{fill:none;stroke:#D2D2D2;stroke-width:2;stroke-linecap:round;stroke-linejoin:round;stroke-miterlimit:10;}
	.st32{fill:none;stroke:#D2D2D2;stroke-width:2;stroke-miterlimit:10;}
	.st33{fill:none;stroke:#FFFFFF;stroke-width:2;stroke-miterlimit:10;}
	.st34{fill:none;stroke:#D2D2D2;stroke-width:1.6;stroke-miterlimit:10;}
	.st35{clip-path:url(#SVGID_40_);}
	.st36{clip-path:url(#SVGID_42_);}
</style>
<g>
	<defs>
		<path id="SVGID_1_" d="M-256.3-6.4h51.4c1.3,0,2.4,1.1,2.4,2.4v32.2c0,1.3-1.1,2.4-2.4,2.4h-51.4c-1.3,0-2.4-1.1-2.4-2.4V-4
			C-258.7-5.3-257.6-6.4-256.3-6.4z"/>
	</defs>
	<clipPath id="SVGID_2_">
		<use xlink:href="#SVGID_1_"  style="overflow:visible;"/>
	</clipPath>
	<g class="st2">
		<defs>
			<rect id="SVGID_3_" x="-329.5" y="-413.4" width="360" height="640"/>
		</defs>
		<clipPath id="SVGID_4_">
			<use xlink:href="#SVGID_3_"  style="overflow:visible;"/>
		</clipPath>
	</g>
</g>
<g>
	<defs>
		<path id="SVGID_5_" d="M-265.1,0.8c-1.8,0-3.2,1.4-3.2,3.2v32.2c0,1.8,1.4,3.2,3.2,3.2h51.4c1.8,0,3.2-1.4,3.2-3.2V4
			c0-1.8-1.4-3.2-3.2-3.2H-265.1z M-265.1,2.4h51.4c0.9,0,1.6,0.7,1.6,1.6v32.2c0,0.9-0.7,1.6-1.6,1.6h-51.4c-0.9,0-1.6-0.7-1.6-1.6
			V4C-266.7,3.2-266,2.4-265.1,2.4z M-288.3-19.2h97.8v78.6h-97.8V-19.2z"/>
	</defs>
	<clipPath id="SVGID_6_">
		<use xlink:href="#SVGID_5_"  style="overflow:visible;"/>
	</clipPath>
	<g class="st4">
		<defs>
			<path id="SVGID_7_" d="M-265.1,1.6h51.4c1.3,0,2.4,1.1,2.4,2.4v32.2c0,1.3-1.1,2.4-2.4,2.4h-51.4c-1.3,0-2.4-1.1-2.4-2.4V4
				C-267.5,2.7-266.4,1.6-265.1,1.6z"/>
		</defs>
		<clipPath id="SVGID_8_">
			<use xlink:href="#SVGID_7_"  style="overflow:visible;"/>
		</clipPath>
		<g class="st5">
			<defs>
				<rect id="SVGID_9_" x="-329.5" y="-413.4" width="360" height="640"/>
			</defs>
			<clipPath id="SVGID_10_">
				<use xlink:href="#SVGID_9_"  style="overflow:visible;"/>
			</clipPath>
		</g>
	</g>
</g>
<g>
	<defs>
		<path id="SVGID_11_" d="M-265.1,1.6h51.4c1.3,0,2.4,1.1,2.4,2.4v32.2c0,1.3-1.1,2.4-2.4,2.4h-51.4c-1.3,0-2.4-1.1-2.4-2.4V4
			C-267.5,2.7-266.4,1.6-265.1,1.6z"/>
	</defs>
	<clipPath id="SVGID_12_">
		<use xlink:href="#SVGID_11_"  style="overflow:visible;"/>
	</clipPath>
	<g class="st7">
		<defs>
			<rect id="SVGID_13_" x="-329.5" y="-413.4" width="360" height="640"/>
		</defs>
		<clipPath id="SVGID_14_">
			<use xlink:href="#SVGID_13_"  style="overflow:visible;"/>
		</clipPath>
	</g>
</g>
<g>
	<defs>
		<ellipse id="SVGID_15_" cx="-252.2" cy="16.1" rx="4" ry="4"/>
	</defs>
	<clipPath id="SVGID_16_">
		<use xlink:href="#SVGID_15_"  style="overflow:visible;"/>
	</clipPath>
	<g class="st9">
		<defs>
			<rect id="SVGID_17_" x="-329.5" y="-413.4" width="360" height="640"/>
		</defs>
		<clipPath id="SVGID_18_">
			<use xlink:href="#SVGID_17_"  style="overflow:visible;"/>
		</clipPath>
	</g>
</g>
<g>
	<defs>
		<rect id="SVGID_19_" x="-237.8" y="11.3" width="21.7" height="2.4"/>
	</defs>
	<clipPath id="SVGID_20_">
		<use xlink:href="#SVGID_19_"  style="overflow:visible;"/>
	</clipPath>
	<g class="st11">
		<defs>
			<rect id="SVGID_21_" x="-329.5" y="-413.4" width="360" height="640"/>
		</defs>
		<clipPath id="SVGID_22_">
			<use xlink:href="#SVGID_21_"  style="overflow:visible;"/>
		</clipPath>
	</g>
</g>
<g>
	<defs>
		<rect id="SVGID_23_" x="-237.8" y="19.3" width="21.7" height="2.4"/>
	</defs>
	<clipPath id="SVGID_24_">
		<use xlink:href="#SVGID_23_"  style="overflow:visible;"/>
	</clipPath>
	<g class="st13">
		<defs>
			<rect id="SVGID_25_" x="-329.5" y="-413.4" width="360" height="640"/>
		</defs>
		<clipPath id="SVGID_26_">
			<use xlink:href="#SVGID_25_"  style="overflow:visible;"/>
		</clipPath>
	</g>
</g>
<g>
	<defs>
		<rect id="SVGID_27_" x="-237.8" y="26.6" width="16" height="2.4"/>
	</defs>
	<clipPath id="SVGID_28_">
		<use xlink:href="#SVGID_27_"  style="overflow:visible;"/>
	</clipPath>
	<g class="st15">
		<defs>
			<rect id="SVGID_29_" x="-329.5" y="-413.4" width="360" height="640"/>
		</defs>
		<clipPath id="SVGID_30_">
			<use xlink:href="#SVGID_29_"  style="overflow:visible;"/>
		</clipPath>
	</g>
</g>
<g>
	<defs>
		<path id="SVGID_31_" d="M-245.8,26.6c0-3.6-2.9-6.4-6.4-6.4c-3.5,0-6.4,2.9-6.4,6.4S-245.8,30.1-245.8,26.6z"/>
	</defs>
	<clipPath id="SVGID_32_">
		<use xlink:href="#SVGID_31_"  style="overflow:visible;"/>
	</clipPath>
	<g class="st17">
		<defs>
			<rect id="SVGID_33_" x="-329.5" y="-413.4" width="360" height="640"/>
		</defs>
		<clipPath id="SVGID_34_">
			<use xlink:href="#SVGID_33_"  style="overflow:visible;"/>
		</clipPath>
	</g>
</g>
<g>
	<defs>
		<path id="SVGID_35_" d="M-79.4-125.6h51.4c1.3,0,2.4,1.1,2.4,2.4v32.2c0,1.3-1.1,2.4-2.4,2.4h-51.4c-1.3,0-2.4-1.1-2.4-2.4v-32.2
			C-81.8-124.5-80.8-125.6-79.4-125.6z"/>
	</defs>
	<clipPath id="SVGID_36_">
		<use xlink:href="#SVGID_35_"  style="overflow:visible;"/>
	</clipPath>
	<g class="st26">
		<defs>
			<rect id="SVGID_37_" x="-139.8" y="-549.7" width="360" height="640"/>
		</defs>
		<clipPath id="SVGID_38_">
			<use xlink:href="#SVGID_37_"  style="overflow:visible;"/>
		</clipPath>
	</g>
</g>
<g>
	<path d="M26.3,31.4c-0.4-0.4-1-0.4-1.4,0s-0.4,1,0,1.4l4.5,4.5H5.1c-1.7,0-3.1-1.4-3.1-3.1V8.2c0-0.6-0.4-1-1-1s-1,0.4-1,1v25.9
		c0,2.8,2.3,5.1,5.1,5.1H29l-4.1,4.1c-0.4,0.4-0.4,1,0,1.4c0.2,0.2,0.5,0.3,0.7,0.3s0.5-0.1,0.7-0.3l6-6c0.2-0.2,0.3-0.4,0.3-0.7
		s-0.1-0.5-0.3-0.7L26.3,31.4z"/>
	<path d="M43.9,6.2H19.8l4.5-4.5c0.4-0.4,0.4-1,0-1.4s-1-0.4-1.4,0l-6,6c-0.2,0.2-0.3,0.4-0.3,0.7s0.1,0.5,0.3,0.7l6,6
		c0.2,0.2,0.5,0.3,0.7,0.3s0.5-0.1,0.7-0.3c0.4-0.4,0.4-1,0-1.4l-4-4h23.6c1.7,0,3.1,1.4,3.1,3.1v25.9c0,0.6,0.4,1,1,1s1-0.4,1-1
		V11.4C49,8.5,46.7,6.2,43.9,6.2z"/>
</g>
</svg>
